<mxfile host="Electron" agent="Mozilla/5.0 (Windows NT 10.0; Win64; x64) AppleWebKit/537.36 (KHTML, like Gecko) draw.io/24.7.17 Chrome/128.0.6613.36 Electron/32.0.1 Safari/537.36" version="24.7.17">
  <diagram name="Page-1" id="72ImlLKnwChfVUSWkqOF">
    <mxGraphModel dx="1036" dy="606" grid="1" gridSize="10" guides="1" tooltips="1" connect="1" arrows="1" fold="1" page="1" pageScale="1" pageWidth="850" pageHeight="1100" math="0" shadow="0">
      <root>
        <mxCell id="0" />
        <mxCell id="1" parent="0" />
        <mxCell id="sHxek25qqWpZAOeoCGyI-1" value="Back End" style="whiteSpace=wrap;strokeWidth=2;rounded=1;verticalAlign=top;" parent="1" vertex="1">
          <mxGeometry x="932" y="144.5" width="330" height="190" as="geometry" />
        </mxCell>
        <mxCell id="sHxek25qqWpZAOeoCGyI-2" value="" style="whiteSpace=wrap;strokeWidth=2;rounded=1;" parent="1" vertex="1">
          <mxGeometry x="490" y="144.5" width="412" height="217.5" as="geometry" />
        </mxCell>
        <mxCell id="sHxek25qqWpZAOeoCGyI-3" value="Physical Sensors" style="strokeWidth=2;rounded=1;align=center;whiteSpace=wrap;labelPosition=center;verticalLabelPosition=middle;verticalAlign=top;horizontal=1;" parent="1" vertex="1">
          <mxGeometry x="120" y="130" width="220" height="800" as="geometry" />
        </mxCell>
        <mxCell id="sHxek25qqWpZAOeoCGyI-4" value="&#xa;GPS&#xa;(UbloxNEO-M8NGPSModule)&#xa;&#xa;" style="rounded=1;arcSize=40;strokeWidth=2;" parent="1" vertex="1">
          <mxGeometry x="152.5" y="182" width="157" height="60" as="geometry" />
        </mxCell>
        <mxCell id="sHxek25qqWpZAOeoCGyI-6" value="Upload sensor data to server" style="curved=1;startArrow=none;endArrow=block;entryX=0.212;entryY=0.5;entryDx=0;entryDy=0;entryPerimeter=0;" parent="1" edge="1">
          <mxGeometry relative="1" as="geometry">
            <Array as="points" />
            <mxPoint x="692" y="205.5" as="sourcePoint" />
            <mxPoint x="1001.96" y="203" as="targetPoint" />
          </mxGeometry>
        </mxCell>
        <mxCell id="sHxek25qqWpZAOeoCGyI-7" value="ESP 32&lt;div&gt;micro Controller&lt;/div&gt;" style="whiteSpace=wrap;html=1;aspect=fixed;" parent="1" vertex="1">
          <mxGeometry x="540" y="170" width="152" height="152" as="geometry" />
        </mxCell>
        <mxCell id="sHxek25qqWpZAOeoCGyI-8" value="Server" style="shape=cylinder3;whiteSpace=wrap;html=1;boundedLbl=1;backgroundOutline=1;size=15;" parent="1" vertex="1">
          <mxGeometry x="1032" y="189.5" width="130" height="100" as="geometry" />
        </mxCell>
        <mxCell id="sHxek25qqWpZAOeoCGyI-9" value="Requesting&#xa;processed data" style="curved=1;startArrow=none;endArrow=block;entryX=0.212;entryY=0.5;entryDx=0;entryDy=0;entryPerimeter=0;" parent="1" edge="1">
          <mxGeometry relative="1" as="geometry">
            <Array as="points" />
            <mxPoint x="692" y="240.5" as="sourcePoint" />
            <mxPoint x="1002" y="238.5" as="targetPoint" />
          </mxGeometry>
        </mxCell>
        <mxCell id="sHxek25qqWpZAOeoCGyI-10" value="Response&#xa;for the request" style="curved=1;startArrow=none;endArrow=block;entryX=0.212;entryY=0.5;entryDx=0;entryDy=0;entryPerimeter=0;" parent="1" edge="1">
          <mxGeometry relative="1" as="geometry">
            <Array as="points" />
            <mxPoint x="1002" y="286" as="sourcePoint" />
            <mxPoint x="692" y="288" as="targetPoint" />
          </mxGeometry>
        </mxCell>
        <mxCell id="sHxek25qqWpZAOeoCGyI-17" value="&#xa;PressureSensor&#xa;(FSR402RFP602)&#xa;&#xa;" style="rounded=1;arcSize=40;strokeWidth=2;" parent="1" vertex="1">
          <mxGeometry x="165" y="262" width="117" height="48" as="geometry" />
        </mxCell>
        <mxCell id="EWHqZrCYsME-98NVBjuO-35" style="edgeStyle=orthogonalEdgeStyle;rounded=0;orthogonalLoop=1;jettySize=auto;html=1;entryX=0;entryY=0.25;entryDx=0;entryDy=0;" parent="1" source="sHxek25qqWpZAOeoCGyI-18" target="sHxek25qqWpZAOeoCGyI-7" edge="1">
          <mxGeometry relative="1" as="geometry">
            <Array as="points">
              <mxPoint x="380" y="346" />
              <mxPoint x="380" y="208" />
            </Array>
          </mxGeometry>
        </mxCell>
        <mxCell id="sHxek25qqWpZAOeoCGyI-18" value="&#xa;Camera&#xa;&#xa;" style="rounded=1;arcSize=40;strokeWidth=2;" parent="1" vertex="1">
          <mxGeometry x="165" y="322" width="117" height="48" as="geometry" />
        </mxCell>
        <mxCell id="EWHqZrCYsME-98NVBjuO-3" value="&lt;h1 style=&quot;margin-top: 0px;&quot;&gt;BoviTrack&lt;/h1&gt;&lt;div&gt;function 4&lt;/div&gt;" style="text;html=1;whiteSpace=wrap;overflow=hidden;rounded=0;" parent="1" vertex="1">
          <mxGeometry x="400" width="570" height="120" as="geometry" />
        </mxCell>
        <mxCell id="EWHqZrCYsME-98NVBjuO-6" value="&#xa;PulseoximeterSpO2&#xa;andHeart-RateSensor&#xa;&#xa;" style="rounded=1;arcSize=40;strokeWidth=2;" parent="1" vertex="1">
          <mxGeometry x="153.5" y="390" width="155" height="48" as="geometry" />
        </mxCell>
        <mxCell id="EWHqZrCYsME-98NVBjuO-8" value="&#xa;LM35&#xa;TemperatureSensorTO-92&#xa;&#xa;" style="rounded=1;arcSize=40;strokeWidth=2;" parent="1" vertex="1">
          <mxGeometry x="152.5" y="460" width="157.5" height="48" as="geometry" />
        </mxCell>
        <mxCell id="EWHqZrCYsME-98NVBjuO-38" style="edgeStyle=orthogonalEdgeStyle;rounded=0;orthogonalLoop=1;jettySize=auto;html=1;entryX=0;entryY=0.5;entryDx=0;entryDy=0;" parent="1" source="EWHqZrCYsME-98NVBjuO-10" target="sHxek25qqWpZAOeoCGyI-7" edge="1">
          <mxGeometry relative="1" as="geometry" />
        </mxCell>
        <mxCell id="EWHqZrCYsME-98NVBjuO-10" value="&#xa;ECG&#xa;HeartPulseMonitoringSensor&#xa;&#xa;" style="rounded=1;arcSize=40;strokeWidth=2;" parent="1" vertex="1">
          <mxGeometry x="152" y="520" width="157.5" height="48" as="geometry" />
        </mxCell>
        <mxCell id="EWHqZrCYsME-98NVBjuO-12" value="&#xa;temperatureandHumiditysensor&#xa;(DHT22)&#xa;&#xa;" style="rounded=1;arcSize=40;strokeWidth=2;" parent="1" vertex="1">
          <mxGeometry x="140" y="590" width="180" height="40" as="geometry" />
        </mxCell>
        <mxCell id="EWHqZrCYsME-98NVBjuO-13" value="&#xa;pHSensorwithprobe&#xa;0-14pH&#xa;&#xa;" style="rounded=1;arcSize=40;strokeWidth=2;" parent="1" vertex="1">
          <mxGeometry x="140" y="650" width="180" height="40" as="geometry" />
        </mxCell>
        <mxCell id="EWHqZrCYsME-98NVBjuO-42" style="edgeStyle=orthogonalEdgeStyle;rounded=0;orthogonalLoop=1;jettySize=auto;html=1;entryX=0;entryY=0.75;entryDx=0;entryDy=0;" parent="1" source="EWHqZrCYsME-98NVBjuO-14" target="sHxek25qqWpZAOeoCGyI-7" edge="1">
          <mxGeometry relative="1" as="geometry">
            <Array as="points">
              <mxPoint x="460" y="740" />
              <mxPoint x="460" y="284" />
            </Array>
          </mxGeometry>
        </mxCell>
        <mxCell id="EWHqZrCYsME-98NVBjuO-14" value="&#xa;DS18B20&#xa;WaterproofDigitalTemperature&#xa;Sensor&#xa;&#xa;" style="rounded=1;arcSize=40;strokeWidth=2;" parent="1" vertex="1">
          <mxGeometry x="140" y="710" width="180" height="60" as="geometry" />
        </mxCell>
        <mxCell id="EWHqZrCYsME-98NVBjuO-16" value="&#xa;actuaters&#xa;" style="whiteSpace=wrap;strokeWidth=2;rounded=1;verticalAlign=top;" parent="1" vertex="1">
          <mxGeometry x="932" y="410" width="330" height="310" as="geometry" />
        </mxCell>
        <mxCell id="EWHqZrCYsME-98NVBjuO-18" value="Humidifiers" style="rounded=1;arcSize=40;strokeWidth=2;" parent="1" vertex="1">
          <mxGeometry x="1038.5" y="480" width="117" height="48" as="geometry" />
        </mxCell>
        <mxCell id="EWHqZrCYsME-98NVBjuO-19" value="Heaters" style="rounded=1;arcSize=40;strokeWidth=2;" parent="1" vertex="1">
          <mxGeometry x="1038.5" y="550" width="117" height="48" as="geometry" />
        </mxCell>
        <mxCell id="EWHqZrCYsME-98NVBjuO-20" value="Cooling Fans" style="rounded=1;arcSize=40;strokeWidth=2;" parent="1" vertex="1">
          <mxGeometry x="1038.5" y="626" width="117" height="48" as="geometry" />
        </mxCell>
        <mxCell id="EWHqZrCYsME-98NVBjuO-25" value="" style="endArrow=classic;html=1;rounded=0;exitX=0.75;exitY=1;exitDx=0;exitDy=0;entryX=0;entryY=0.5;entryDx=0;entryDy=0;" parent="1" source="sHxek25qqWpZAOeoCGyI-7" target="EWHqZrCYsME-98NVBjuO-18" edge="1">
          <mxGeometry width="50" height="50" relative="1" as="geometry">
            <mxPoint x="720" y="410" as="sourcePoint" />
            <mxPoint x="650" y="480" as="targetPoint" />
            <Array as="points">
              <mxPoint x="654" y="500" />
            </Array>
          </mxGeometry>
        </mxCell>
        <mxCell id="EWHqZrCYsME-98NVBjuO-26" value="" style="endArrow=classic;html=1;rounded=0;exitX=0.75;exitY=1;exitDx=0;exitDy=0;entryX=0;entryY=0.5;entryDx=0;entryDy=0;" parent="1" target="EWHqZrCYsME-98NVBjuO-19" edge="1">
          <mxGeometry width="50" height="50" relative="1" as="geometry">
            <mxPoint x="610" y="322" as="sourcePoint" />
            <mxPoint x="1002" y="504" as="targetPoint" />
            <Array as="points">
              <mxPoint x="610" y="574" />
            </Array>
          </mxGeometry>
        </mxCell>
        <mxCell id="EWHqZrCYsME-98NVBjuO-27" value="" style="endArrow=classic;html=1;rounded=0;exitX=0.189;exitY=0.987;exitDx=0;exitDy=0;entryX=0;entryY=0.5;entryDx=0;entryDy=0;exitPerimeter=0;" parent="1" source="sHxek25qqWpZAOeoCGyI-7" target="EWHqZrCYsME-98NVBjuO-20" edge="1">
          <mxGeometry width="50" height="50" relative="1" as="geometry">
            <mxPoint x="620" y="332" as="sourcePoint" />
            <mxPoint x="1049" y="584" as="targetPoint" />
            <Array as="points">
              <mxPoint x="568" y="650" />
            </Array>
          </mxGeometry>
        </mxCell>
        <mxCell id="EWHqZrCYsME-98NVBjuO-28" value="&#xa; TurbiditySensorLiquid&#xa;SuspendedParticles&#xa; DetectionKi&#xa;&#xa;" style="rounded=1;arcSize=40;strokeWidth=2;" parent="1" vertex="1">
          <mxGeometry x="141.25" y="790" width="180" height="60" as="geometry" />
        </mxCell>
        <mxCell id="EWHqZrCYsME-98NVBjuO-29" value="&#xa;Gravity:&#xa;AnalogTDSSensorforArduino&#xa;&#xa;" style="rounded=1;arcSize=40;strokeWidth=2;" parent="1" vertex="1">
          <mxGeometry x="141.25" y="860" width="180" height="60" as="geometry" />
        </mxCell>
        <mxCell id="EWHqZrCYsME-98NVBjuO-33" style="edgeStyle=orthogonalEdgeStyle;rounded=0;orthogonalLoop=1;jettySize=auto;html=1;entryX=0.008;entryY=0.088;entryDx=0;entryDy=0;entryPerimeter=0;" parent="1" source="sHxek25qqWpZAOeoCGyI-4" target="sHxek25qqWpZAOeoCGyI-7" edge="1">
          <mxGeometry relative="1" as="geometry">
            <Array as="points">
              <mxPoint x="360" y="212" />
              <mxPoint x="360" y="183" />
            </Array>
          </mxGeometry>
        </mxCell>
        <mxCell id="EWHqZrCYsME-98NVBjuO-34" style="edgeStyle=orthogonalEdgeStyle;rounded=0;orthogonalLoop=1;jettySize=auto;html=1;entryX=0.008;entryY=0.151;entryDx=0;entryDy=0;entryPerimeter=0;" parent="1" source="sHxek25qqWpZAOeoCGyI-17" target="sHxek25qqWpZAOeoCGyI-7" edge="1">
          <mxGeometry relative="1" as="geometry">
            <Array as="points">
              <mxPoint x="370" y="286" />
              <mxPoint x="370" y="193" />
            </Array>
          </mxGeometry>
        </mxCell>
        <mxCell id="EWHqZrCYsME-98NVBjuO-36" style="edgeStyle=orthogonalEdgeStyle;rounded=0;orthogonalLoop=1;jettySize=auto;html=1;entryX=-0.003;entryY=0.33;entryDx=0;entryDy=0;entryPerimeter=0;" parent="1" source="EWHqZrCYsME-98NVBjuO-6" target="sHxek25qqWpZAOeoCGyI-7" edge="1">
          <mxGeometry relative="1" as="geometry">
            <Array as="points">
              <mxPoint x="390" y="414" />
              <mxPoint x="390" y="220" />
            </Array>
          </mxGeometry>
        </mxCell>
        <mxCell id="EWHqZrCYsME-98NVBjuO-37" style="edgeStyle=orthogonalEdgeStyle;rounded=0;orthogonalLoop=1;jettySize=auto;html=1;entryX=0.003;entryY=0.42;entryDx=0;entryDy=0;entryPerimeter=0;" parent="1" source="EWHqZrCYsME-98NVBjuO-8" target="sHxek25qqWpZAOeoCGyI-7" edge="1">
          <mxGeometry relative="1" as="geometry">
            <Array as="points">
              <mxPoint x="400" y="484" />
              <mxPoint x="400" y="234" />
            </Array>
          </mxGeometry>
        </mxCell>
        <mxCell id="EWHqZrCYsME-98NVBjuO-40" style="edgeStyle=orthogonalEdgeStyle;rounded=0;orthogonalLoop=1;jettySize=auto;html=1;entryX=0.003;entryY=0.588;entryDx=0;entryDy=0;entryPerimeter=0;" parent="1" source="EWHqZrCYsME-98NVBjuO-12" target="sHxek25qqWpZAOeoCGyI-7" edge="1">
          <mxGeometry relative="1" as="geometry">
            <Array as="points">
              <mxPoint x="440" y="610" />
              <mxPoint x="440" y="259" />
            </Array>
          </mxGeometry>
        </mxCell>
        <mxCell id="EWHqZrCYsME-98NVBjuO-41" style="edgeStyle=orthogonalEdgeStyle;rounded=0;orthogonalLoop=1;jettySize=auto;html=1;entryX=0.003;entryY=0.683;entryDx=0;entryDy=0;entryPerimeter=0;" parent="1" source="EWHqZrCYsME-98NVBjuO-13" target="sHxek25qqWpZAOeoCGyI-7" edge="1">
          <mxGeometry relative="1" as="geometry">
            <Array as="points">
              <mxPoint x="450" y="670" />
              <mxPoint x="450" y="274" />
            </Array>
          </mxGeometry>
        </mxCell>
        <mxCell id="EWHqZrCYsME-98NVBjuO-43" style="edgeStyle=orthogonalEdgeStyle;rounded=0;orthogonalLoop=1;jettySize=auto;html=1;entryX=-0.003;entryY=0.841;entryDx=0;entryDy=0;entryPerimeter=0;" parent="1" source="EWHqZrCYsME-98NVBjuO-28" target="sHxek25qqWpZAOeoCGyI-7" edge="1">
          <mxGeometry relative="1" as="geometry">
            <Array as="points">
              <mxPoint x="470" y="820" />
              <mxPoint x="470" y="298" />
            </Array>
          </mxGeometry>
        </mxCell>
        <mxCell id="EWHqZrCYsME-98NVBjuO-44" style="edgeStyle=orthogonalEdgeStyle;rounded=0;orthogonalLoop=1;jettySize=auto;html=1;entryX=0.003;entryY=0.92;entryDx=0;entryDy=0;entryPerimeter=0;" parent="1" source="EWHqZrCYsME-98NVBjuO-29" target="sHxek25qqWpZAOeoCGyI-7" edge="1">
          <mxGeometry relative="1" as="geometry">
            <Array as="points">
              <mxPoint x="480" y="890" />
              <mxPoint x="480" y="310" />
            </Array>
          </mxGeometry>
        </mxCell>
      </root>
    </mxGraphModel>
  </diagram>
</mxfile>
